<?xml version="1.0" standalone="no"?><!DOCTYPE svg PUBLIC "-//W3C//DTD SVG 1.1//EN" "http://www.w3.org/Graphics/SVG/1.1/DTD/svg11.dtd"><svg width="400px" height="100px" version="1.1" xmlns="http://www.w3.org/2000/svg" xmlns:xlink="http://www.w3.org/1999/xlink" xml:space="preserve" style="fill-rule:evenodd;clip-rule:evenodd;stroke-linecap:round;stroke-linejoin:round;stroke-miterlimit:1.41421;"><g><g id="Layer1"><g transform="matrix(3.51854,0,0,3.51854,-1308.43,-82.6723)"><path d="M381.205,41.1017c2.12938,0 3.11925,-1.05893 3.11925,-2.29052c0,-2.9581 -4.8803,-1.72652 -4.8803,-3.69475c0,-0.702118 0.587017,-1.27763 1.95672,-1.27763c0.713628,0 1.50783,0.207182 2.20995,0.656078l0.379834,-0.920811c-0.667588,-0.460405 -1.64595,-0.713628 -2.58978,-0.713628c-2.11787,0 -3.08472,1.05893 -3.08472,2.30203c0,2.99264 4.8803,1.74954 4.8803,3.71777c0,0.702118 -0.598527,1.24309 -1.99125,1.24309c-1.03591,0 -2.06031,-0.391345 -2.65884,-0.932321l-0.425875,0.897791c0.644568,0.598527 1.85313,1.01289 3.08472,1.01289Z" style="fill:#000;fill-rule:nonzero;"/><path d="M396.295,32.9525l-2.22146,6.5838l-2.22146,-6.5838l-1.05893,0l-2.2675,6.54927l-2.17542,-6.54927l-1.18554,0l2.69337,8.0571l1.23158,0l2.19844,-6.43417l2.19844,6.43417l1.20856,0l2.69337,-8.0571l-1.09346,0Z" style="fill:#000;fill-rule:nonzero;"/><path d="M400.162,41.0096l1.1395,0l0,-7.05571l2.76243,0l0,-1.00138l-6.66437,0l0,1.00138l2.76243,0l0,7.05571Z" style="fill:#000;fill-rule:nonzero;"/><path d="M408.012,41.0096l6.12339,0l0,-1.80709l-3.84439,0l0,-6.25l-2.27901,0l0,8.0571Z" style="fill:#000;fill-rule:nonzero;"/><rect x="415.033" y="32.9525" width="2.27901" height="8.0571" style="fill:#000;fill-rule:nonzero;"/><path d="M425.128,36.8084c0.690608,-0.356814 1.08195,-0.978362 1.08195,-1.74954c0,-1.24309 -1.03591,-2.10635 -3.15378,-2.10635l-4.12063,0l0,8.0571l4.35083,0c2.16391,0 3.31492,-0.81722 3.31492,-2.20995c0,-0.978362 -0.563997,-1.66897 -1.4733,-1.99125ZM422.757,34.5984c0.759669,0 1.15101,0.264733 1.15101,0.771179c0,0.517956 -0.391345,0.782689 -1.15101,0.782689l-1.56538,0l0,-1.55387l1.56538,0ZM423.102,39.3636l-1.91068,0l0,-1.63444l1.91068,0c0.782689,0 1.19705,0.264733 1.19705,0.81722c0,0.552487 -0.414365,0.81722 -1.19705,0.81722Z" style="fill:#000;fill-rule:nonzero;"/><path d="M432.77,41.0096l2.44015,0l-1.73803,-2.53223c1.00138,-0.483426 1.57689,-1.3582 1.57689,-2.54374c0,-1.84162 -1.38122,-2.98113 -3.57965,-2.98113l-3.68324,0l0,8.0571l2.27901,0l0,-2.14089l1.24309,0l1.46179,2.14089ZM432.747,35.9336c0,0.736649 -0.471916,1.17403 -1.41575,1.17403l-1.26611,0l0,-2.35958l1.26611,0c0.943831,0 1.41575,0.437385 1.41575,1.18554Z" style="fill:#000;fill-rule:nonzero;"/><path d="M442.335,41.0096l2.37109,0l-3.56814,-8.0571l-2.24448,0l-3.55663,8.0571l2.32505,0l0.633057,-1.56538l3.407,0l0.633057,1.56538ZM438.963,37.7637l1.03591,-2.57827l1.03591,2.57827l-2.07182,0Z" style="fill:#000;fill-rule:nonzero;"/><path d="M450.335,41.0096l2.44015,0l-1.73803,-2.53223c1.00138,-0.483426 1.57689,-1.3582 1.57689,-2.54374c0,-1.84162 -1.38122,-2.98113 -3.57965,-2.98113l-3.68324,0l0,8.0571l2.27901,0l0,-2.14089l1.24309,0l1.46179,2.14089ZM450.312,35.9336c0,0.736649 -0.471916,1.17403 -1.41575,1.17403l-1.26611,0l0,-2.35958l1.26611,0c0.943831,0 1.41575,0.437385 1.41575,1.18554Z" style="fill:#000;fill-rule:nonzero;"/><path d="M461.154,32.9525l-2.20995,0l-1.91068,3.19982l-1.91068,-3.19982l-2.40562,0l3.07321,5.13352l0,2.92357l2.27901,0l0,-2.88904l3.08472,-5.16805Z" style="fill:#000;fill-rule:nonzero;"/></g><g transform="matrix(0.971715,0.236158,-0.223469,0.919503,20.6579,-80.0237)"><rect x="328.666" y="30.1298" width="47.395" height="40.794" style="fill:#fbb400;"/></g><g transform="matrix(0.971715,0.236158,-0.236158,0.971715,20.9216,-81.949)"><path d="M332.777,65.4957l19.5866,3.55036l19.7345,-3.08825l0,-38.6231l-19.536,3.94735l-19.7852,-3.94735l0,38.161Z" style="fill:#ffdb82;stroke-width:1.04px;stroke:#fff;"/></g><g transform="matrix(0.971715,0.236158,-0.236158,0.971715,20.9216,-81.949)"><path d="M338.64,23.6813l13.7968,7.6659l13.7968,-7.10072l0,37.6989l-13.7968,7.10072l-13.7968,-7.6659l0,-37.6989Z" style="fill:#ffb700;stroke-width:1.04px;stroke:#fff;"/></g><g transform="matrix(0.971715,0.236158,-0.236158,0.971715,20.9216,-81.949)"><path d="M352.363,31.5412l0.198534,37.5049" style="fill:#ffb700;stroke-width:1.04px;stroke:#fff;"/></g></g></g></svg>
