<?xml version="1.0" standalone="no"?><!DOCTYPE svg PUBLIC "-//W3C//DTD SVG 1.1//EN" "http://www.w3.org/Graphics/SVG/1.1/DTD/svg11.dtd"><svg width="128px" height="128px" version="1.1" xmlns="http://www.w3.org/2000/svg" xmlns:xlink="http://www.w3.org/1999/xlink" xml:space="preserve" style="fill-rule:evenodd;clip-rule:evenodd;stroke-linecap:round;stroke-linejoin:round;stroke-miterlimit:1.41421;"><g><g id="Layer1"><path d="M64,0c35.3462,0 64,28.6538 64,64c0,35.3462 -28.6538,64 -64,64c-35.3462,0 -64,-28.6538 -64,-64c0,-35.3462 28.6538,-64 64,-64Z" style="fill:#fbb800;"/><g transform="matrix(1,0,0,1,2.64016,7.43796)"><g transform="matrix(-0.000554847,1,-1,-0.000554847,129.366,-41.7968)"><path d="M85.5698,35.2562l10.2533,16.985l-20.5065,0l10.2533,-16.985Z" style="fill:#000;stroke-width:2.29px;stroke:#000;"/></g><path d="M82.7808,43.744l-48.4741,0" style="fill:none;stroke-width:6.25px;stroke:#000;"/></g><g transform="matrix(-1,0,0,1,125.36,33.0741)"><g transform="matrix(-0.000554847,1,-1,-0.000554847,129.366,-41.7968)"><path d="M85.5698,35.2562l10.2533,16.985l-20.5065,0l10.2533,-16.985Z" style="fill:#000;stroke-width:2.29px;stroke:#000;"/></g><path d="M82.7808,43.744l-48.4741,0" style="fill:none;stroke-width:6.25px;stroke:#000;"/></g></g></g></svg>